<svg xmlns="http://www.w3.org/2000/svg" xmlns:xlink="http://www.w3.org/1999/xlink" width="100" zoomAndPan="magnify" viewBox="0 0 75 74.999997" height="100" preserveAspectRatio="xMidYMid meet" version="1.0"><defs><clipPath id="cfbfa6060d"><path d="M 8.703125 0 L 66.453125 0 L 66.453125 72.75 L 8.703125 72.75 Z M 8.703125 0 " clip-rule="nonzero"/></clipPath></defs><g clip-path="url(#cfbfa6060d)"><path fill="#8b764c" d="M 37.496094 72.378906 L 36.804688 71.710938 C 35.65625 70.605469 8.703125 44.460938 8.703125 28.863281 C 8.703125 13.269531 21.621094 0.0703125 37.496094 0.0703125 C 53.375 0.0703125 66.289062 12.988281 66.289062 28.863281 C 66.289062 44.742188 39.339844 70.605469 38.191406 71.710938 Z M 37.496094 2.070312 C 22.722656 2.070312 10.699219 14.089844 10.699219 28.863281 C 10.699219 42.28125 33.222656 65.335938 37.496094 69.589844 C 41.769531 65.335938 64.289062 42.28125 64.289062 28.863281 C 64.289062 14.089844 52.269531 2.070312 37.496094 2.070312 Z M 37.496094 42.417969 C 28.832031 42.417969 21.78125 35.367188 21.78125 26.699219 C 21.78125 18.035156 28.832031 10.984375 37.496094 10.984375 C 46.164062 10.984375 53.214844 18.035156 53.214844 26.703125 C 53.214844 35.367188 46.164062 42.417969 37.496094 42.417969 Z M 37.496094 12.984375 C 29.933594 12.984375 23.777344 19.136719 23.777344 26.699219 C 23.777344 34.265625 29.933594 40.417969 37.496094 40.417969 C 45.058594 40.417969 51.214844 34.265625 51.214844 26.699219 C 51.214844 19.136719 45.058594 12.984375 37.496094 12.984375 Z M 37.496094 12.984375 " fill-opacity="1" fill-rule="nonzero"/></g><path stroke-linecap="butt" transform="matrix(0.75, 0, 0, 0.75, 25.499999, 73.499993)" fill="none" stroke-linejoin="miter" d="M 0.000000776667 1.000009 L 32.000003 1.000009 " stroke="#8b764c" stroke-width="2" stroke-opacity="1" stroke-miterlimit="4"/></svg>